<mxfile host="app.diagrams.net" modified="2023-11-09T18:07:18.090Z" agent="Mozilla/5.0 (Macintosh; Intel Mac OS X 10_15_7) AppleWebKit/537.36 (KHTML, like Gecko) Chrome/119.0.0.0 Safari/537.36" etag="E-3WOHEIjw_YxQRtHe-z" version="22.1.0" type="device">
  <diagram name="Page-1" id="Nui-td80n-aQlh77R57F">
    <mxGraphModel dx="1195" dy="644" grid="1" gridSize="10" guides="1" tooltips="1" connect="1" arrows="1" fold="1" page="1" pageScale="1" pageWidth="850" pageHeight="1100" math="0" shadow="0">
      <root>
        <mxCell id="0" />
        <mxCell id="1" parent="0" />
        <mxCell id="r9puiUjmGgyDkKUMW15J-11" value="" style="endArrow=classic;html=1;rounded=0;" parent="1" edge="1">
          <mxGeometry width="50" height="50" relative="1" as="geometry">
            <mxPoint x="480" y="310" as="sourcePoint" />
            <mxPoint x="320" y="460" as="targetPoint" />
          </mxGeometry>
        </mxCell>
        <mxCell id="r9puiUjmGgyDkKUMW15J-21" value="&lt;font style=&quot;font-size: 17px;&quot;&gt;ix&lt;/font&gt;" style="text;html=1;strokeColor=none;fillColor=none;align=center;verticalAlign=middle;whiteSpace=wrap;rounded=0;" parent="1" vertex="1">
          <mxGeometry x="320" y="450" width="60" height="30" as="geometry" />
        </mxCell>
        <mxCell id="r9puiUjmGgyDkKUMW15J-54" value="" style="endArrow=classic;html=1;rounded=0;entryX=0.5;entryY=0;entryDx=0;entryDy=0;exitX=0.5;exitY=1;exitDx=0;exitDy=0;" parent="1" source="r9puiUjmGgyDkKUMW15J-50" target="r9puiUjmGgyDkKUMW15J-52" edge="1">
          <mxGeometry width="50" height="50" relative="1" as="geometry">
            <mxPoint x="581" y="110" as="sourcePoint" />
            <mxPoint x="716" y="90" as="targetPoint" />
          </mxGeometry>
        </mxCell>
        <mxCell id="r9puiUjmGgyDkKUMW15J-7" value="" style="endArrow=classic;html=1;rounded=0;" parent="1" edge="1">
          <mxGeometry width="50" height="50" relative="1" as="geometry">
            <mxPoint x="478" y="310" as="sourcePoint" />
            <mxPoint x="758" y="310" as="targetPoint" />
          </mxGeometry>
        </mxCell>
        <mxCell id="r9puiUjmGgyDkKUMW15J-22" value="&lt;font style=&quot;font-size: 17px;&quot;&gt;y&lt;/font&gt;" style="text;html=1;strokeColor=none;fillColor=none;align=center;verticalAlign=middle;whiteSpace=wrap;rounded=0;" parent="1" vertex="1">
          <mxGeometry x="470" y="60" width="60" height="30" as="geometry" />
        </mxCell>
        <mxCell id="SdYlDd8xHXBLDSkOT2ET-62" value="&lt;font style=&quot;font-size: 10px;&quot;&gt;Child&lt;/font&gt;" style="text;html=1;strokeColor=none;fillColor=none;align=left;verticalAlign=middle;whiteSpace=wrap;rounded=0;" parent="1" vertex="1">
          <mxGeometry x="661" y="130" width="84" height="30" as="geometry" />
        </mxCell>
        <mxCell id="r9puiUjmGgyDkKUMW15J-23" value="&lt;font style=&quot;font-size: 17px;&quot;&gt;y&lt;/font&gt;" style="text;html=1;strokeColor=none;fillColor=none;align=center;verticalAlign=middle;whiteSpace=wrap;rounded=0;" parent="1" vertex="1">
          <mxGeometry x="470" y="60" width="60" height="30" as="geometry" />
        </mxCell>
        <mxCell id="r9puiUjmGgyDkKUMW15J-24" value="&lt;font style=&quot;font-size: 17px;&quot;&gt;x&lt;/font&gt;" style="text;html=1;strokeColor=none;fillColor=none;align=center;verticalAlign=middle;whiteSpace=wrap;rounded=0;" parent="1" vertex="1">
          <mxGeometry x="730" y="320" width="60" height="30" as="geometry" />
        </mxCell>
        <mxCell id="r9puiUjmGgyDkKUMW15J-50" value="x-y" style="ellipse;whiteSpace=wrap;html=1;aspect=fixed;fillColor=#d5e8d4;strokeColor=#82b366;strokeWidth=2;" parent="1" vertex="1">
          <mxGeometry x="568" y="20" width="85" height="85" as="geometry" />
        </mxCell>
        <mxCell id="SdYlDd8xHXBLDSkOT2ET-61" value="&lt;font style=&quot;font-size: 10px;&quot;&gt;Parent&lt;/font&gt;" style="text;html=1;strokeColor=none;fillColor=none;align=left;verticalAlign=middle;whiteSpace=wrap;rounded=0;" parent="1" vertex="1">
          <mxGeometry x="662" y="47.5" width="84" height="30" as="geometry" />
        </mxCell>
        <mxCell id="r9puiUjmGgyDkKUMW15J-6" value="" style="endArrow=classic;html=1;rounded=0;" parent="1" edge="1">
          <mxGeometry width="50" height="50" relative="1" as="geometry">
            <mxPoint x="479" y="310" as="sourcePoint" />
            <mxPoint x="479" y="70" as="targetPoint" />
          </mxGeometry>
        </mxCell>
        <mxCell id="r9puiUjmGgyDkKUMW15J-57" value="" style="group" parent="1" vertex="1" connectable="0">
          <mxGeometry x="524" y="70" width="135" height="100" as="geometry" />
        </mxCell>
        <mxCell id="r9puiUjmGgyDkKUMW15J-52" value="ix-x" style="ellipse;whiteSpace=wrap;html=1;aspect=fixed;fillColor=#f8cecc;strokeColor=#b85450;strokeWidth=2;dashed=1;" parent="r9puiUjmGgyDkKUMW15J-57" vertex="1">
          <mxGeometry x="67" y="61" width="40" height="40" as="geometry" />
        </mxCell>
        <mxCell id="KKzR6aZd3_4flatBNfE--6" value="" style="endArrow=classic;html=1;rounded=0;" edge="1" parent="1">
          <mxGeometry width="50" height="50" relative="1" as="geometry">
            <mxPoint x="480" y="310" as="sourcePoint" />
            <mxPoint x="630" y="250" as="targetPoint" />
          </mxGeometry>
        </mxCell>
      </root>
    </mxGraphModel>
  </diagram>
</mxfile>
